STARTFONT 2.1
COMMENT $XConsortium: lutRS24.bdf,v 1.9 94/04/02 16:11:46 gildea Exp $
FONT -B&H-LucidaTypewriter-Medium-R-Normal-Sans-24-240-75-75-M-140-ISO8859-1
SIZE 24 72 72
FONTBOUNDINGBOX 15 27 7 -5
STARTPROPERTIES 20
FONTNAME_REGISTRY ""
FOUNDRY "B&H"
FAMILY_NAME "LucidaTypewriter"
WEIGHT_NAME "Medium"
SLANT "R"
SETWIDTH_NAME "Normal"
ADD_STYLE_NAME "Sans"
PIXEL_SIZE 24
POINT_SIZE 240
RESOLUTION_X 75
RESOLUTION_Y 75
SPACING "M"
AVERAGE_WIDTH 140
CHARSET_REGISTRY "ISO8859"
CHARSET_ENCODING "1"
FONT_ASCENT 22
FONT_DESCENT 5
DEFAULT_CHAR 0
COPYRIGHT "Copyright Bigelow & Holmes 1986, 1985."
FACE_NAME "Lucida Sans Typewriter"
ENDPROPERTIES
CHARS 190
STARTCHAR space
ENCODING 32
SWIDTH 602 0
DWIDTH 14 0
BBX 1 1 0 0
BITMAP
00
ENDCHAR
STARTCHAR exclam
ENCODING 33
SWIDTH 602 0
DWIDTH 14 0
BBX 3 17 6 0
BITMAP
60
60
60
60
60
60
60
60
40
40
40
40
00
00
00
e0
e0
ENDCHAR
STARTCHAR quotedbl
ENCODING 34
SWIDTH 602 0
DWIDTH 14 0
BBX 10 5 2 12
BITMAP
c0c0
c0c0
c0c0
4080
4080
ENDCHAR
STARTCHAR numbersign
ENCODING 35
SWIDTH 602 0
DWIDTH 14 0
BBX 13 17 1 0
BITMAP
0220
0220
0420
0420
0440
0440
7ff8
0880
0880
0880
1880
fff0
1100
1100
2100
2200
2200
ENDCHAR
STARTCHAR dollar
ENCODING 36
SWIDTH 602 0
DWIDTH 14 0
BBX 9 21 3 -2
BITMAP
0800
0800
3f00
6980
c800
c800
c800
e800
7800
3800
1e00
0f00
0b80
0980
0980
0980
8b80
ef00
7e00
0800
0800
ENDCHAR
STARTCHAR percent
ENCODING 37
SWIDTH 602 0
DWIDTH 14 0
BBX 14 17 0 0
BITMAP
380c
4418
8210
8220
8260
8240
4480
3900
0300
0270
0488
0904
1904
1104
2104
6088
c070
ENDCHAR
STARTCHAR ampersand
ENCODING 38
SWIDTH 602 0
DWIDTH 14 0
BBX 15 17 0 0
BITMAP
0780
0cc0
1860
1860
18e0
1cc0
0f00
0e00
3606
6706
c386
c1c4
c0ec
c07c
6038
307c
1fde
ENDCHAR
STARTCHAR quoteright
ENCODING 39
SWIDTH 602 0
DWIDTH 14 0
BBX 3 6 6 11
BITMAP
e0
e0
20
60
c0
80
ENDCHAR
STARTCHAR parenleft
ENCODING 40
SWIDTH 602 0
DWIDTH 14 0
BBX 8 21 4 -4
BITMAP
07
0f
3c
30
70
60
e0
c0
c0
c0
c0
c0
c0
c0
60
60
30
30
1c
0f
03
ENDCHAR
STARTCHAR parenright
ENCODING 41
SWIDTH 602 0
DWIDTH 14 0
BBX 8 21 2 -4
BITMAP
c0
f0
38
0c
0c
06
06
03
03
03
03
03
03
03
06
06
0e
0c
38
f0
c0
ENDCHAR
STARTCHAR asterisk
ENCODING 42
SWIDTH 602 0
DWIDTH 14 0
BBX 11 10 2 7
BITMAP
0e00
0e00
4420
e4e0
f1e0
0000
1b00
3b80
71c0
1100
ENDCHAR
STARTCHAR plus
ENCODING 43
SWIDTH 602 0
DWIDTH 14 0
BBX 11 13 2 0
BITMAP
0400
0400
0400
0400
0400
0400
ffe0
0400
0400
0400
0400
0400
0400
ENDCHAR
STARTCHAR comma
ENCODING 44
SWIDTH 602 0
DWIDTH 14 0
BBX 3 8 6 -4
BITMAP
e0
e0
e0
e0
20
60
40
c0
ENDCHAR
STARTCHAR minus
ENCODING 45
SWIDTH 602 0
DWIDTH 14 0
BBX 12 1 1 5
BITMAP
fff0
ENDCHAR
STARTCHAR period
ENCODING 46
SWIDTH 602 0
DWIDTH 14 0
BBX 3 3 6 0
BITMAP
e0
e0
e0
ENDCHAR
STARTCHAR slash
ENCODING 47
SWIDTH 602 0
DWIDTH 14 0
BBX 13 21 1 -4
BITMAP
0018
0010
0020
0020
0040
0040
0080
0180
0100
0300
0200
0600
0400
0c00
0800
1000
1000
2000
2000
4000
c000
ENDCHAR
STARTCHAR zero
ENCODING 48
SWIDTH 602 0
DWIDTH 14 0
BBX 12 17 1 0
BITMAP
0f00
30c0
6060
6060
4020
c030
c030
c030
c030
c030
c030
c030
4020
6060
6060
30c0
0f00
ENDCHAR
STARTCHAR one
ENCODING 49
SWIDTH 602 0
DWIDTH 14 0
BBX 12 17 2 0
BITMAP
0200
1e00
f600
0600
0600
0600
0600
0600
0600
0600
0600
0600
0600
0600
0600
0600
fff0
ENDCHAR
STARTCHAR two
ENCODING 50
SWIDTH 602 0
DWIDTH 14 0
BBX 9 17 2 0
BITMAP
7e00
c300
0180
0180
0180
0180
0100
0300
0200
0400
0800
1000
3000
6000
e000
e000
ff80
ENDCHAR
STARTCHAR three
ENCODING 51
SWIDTH 602 0
DWIDTH 14 0
BBX 9 17 3 0
BITMAP
fe00
8300
0180
0180
0180
0180
0700
7c00
0600
0300
0180
0180
0180
0180
0300
8700
fc00
ENDCHAR
STARTCHAR four
ENCODING 52
SWIDTH 602 0
DWIDTH 14 0
BBX 11 17 2 0
BITMAP
0180
0380
0380
0580
0d80
0980
1180
3180
2180
4180
c180
ffe0
0180
0180
0180
0180
0180
ENDCHAR
STARTCHAR five
ENCODING 53
SWIDTH 602 0
DWIDTH 14 0
BBX 9 17 3 0
BITMAP
ff80
8000
8000
8000
8000
8000
f800
0e00
0300
0180
0180
0180
0180
0180
0300
8600
fc00
ENDCHAR
STARTCHAR six
ENCODING 54
SWIDTH 602 0
DWIDTH 14 0
BBX 11 17 2 0
BITMAP
0fc0
1040
2000
6000
4000
c000
df00
f1c0
e0c0
c060
c060
c060
c060
4060
60c0
3180
1f00
ENDCHAR
STARTCHAR seven
ENCODING 55
SWIDTH 602 0
DWIDTH 14 0
BBX 10 17 3 0
BITMAP
ffc0
ffc0
0080
0180
0100
0300
0200
0600
0400
0c00
0800
1800
1000
3000
3000
6000
6000
ENDCHAR
STARTCHAR eight
ENCODING 56
SWIDTH 602 0
DWIDTH 14 0
BBX 11 17 2 0
BITMAP
1f00
3080
6040
6040
6040
70c0
3d80
1f00
1f80
63c0
40e0
c060
c060
c060
e040
70c0
1f00
ENDCHAR
STARTCHAR nine
ENCODING 57
SWIDTH 602 0
DWIDTH 14 0
BBX 11 17 2 0
BITMAP
1f00
3180
60c0
c040
c060
c060
c060
c060
60e0
71e0
1f60
0060
0040
00c0
0080
4100
7e00
ENDCHAR
STARTCHAR colon
ENCODING 58
SWIDTH 602 0
DWIDTH 14 0
BBX 3 13 6 0
BITMAP
e0
e0
e0
00
00
00
00
00
00
00
e0
e0
e0
ENDCHAR
STARTCHAR semicolon
ENCODING 59
SWIDTH 602 0
DWIDTH 14 0
BBX 3 17 6 -4
BITMAP
e0
e0
e0
00
00
00
00
00
00
e0
e0
e0
e0
20
60
40
c0
ENDCHAR
STARTCHAR less
ENCODING 60
SWIDTH 602 0
DWIDTH 14 0
BBX 11 13 0 0
BITMAP
0020
0060
0180
0600
0c00
3000
c000
3000
0c00
0600
0180
0060
0020
ENDCHAR
STARTCHAR equal
ENCODING 61
SWIDTH 602 0
DWIDTH 14 0
BBX 12 7 1 3
BITMAP
fff0
0000
0000
0000
0000
0000
fff0
ENDCHAR
STARTCHAR greater
ENCODING 62
SWIDTH 602 0
DWIDTH 14 0
BBX 11 13 1 0
BITMAP
8000
c000
3000
0c00
0600
0180
0060
0180
0600
0c00
3000
c000
8000
ENDCHAR
STARTCHAR question
ENCODING 63
SWIDTH 602 0
DWIDTH 14 0
BBX 10 17 2 0
BITMAP
ff00
8180
80c0
00c0
00c0
0180
0300
0600
0c00
0800
1800
1800
0000
0000
0000
0c00
0c00
ENDCHAR
STARTCHAR at
ENCODING 64
SWIDTH 602 0
DWIDTH 14 0
BBX 14 17 1 0
BITMAP
07e0
1c10
3008
60f8
4108
c208
8208
8408
8408
8418
8438
8428
4268
41cc
2000
1810
07e0
ENDCHAR
STARTCHAR A
ENCODING 65
SWIDTH 602 0
DWIDTH 14 0
BBX 13 17 -1 0
BITMAP
0600
0700
0b00
0b00
0980
1180
1180
10c0
30c0
20c0
20e0
7fe0
4060
4030
8030
8030
8018
ENDCHAR
STARTCHAR B
ENCODING 66
SWIDTH 602 0
DWIDTH 14 0
BBX 11 17 2 0
BITMAP
ff00
c180
c0c0
c0c0
c0c0
c0c0
c180
c300
ff00
c3c0
c0c0
c060
c060
c060
c060
c0c0
ff80
ENDCHAR
STARTCHAR C
ENCODING 67
SWIDTH 602 0
DWIDTH 14 0
BBX 12 17 1 0
BITMAP
07f0
1830
3000
6000
6000
c000
c000
c000
c000
c000
c000
c000
6000
6000
3000
1c10
07f0
ENDCHAR
STARTCHAR D
ENCODING 68
SWIDTH 602 0
DWIDTH 14 0
BBX 12 17 2 0
BITMAP
ff00
c1c0
c0e0
c060
c030
c030
c030
c030
c030
c030
c030
c030
c060
c060
c0c0
c1c0
ff00
ENDCHAR
STARTCHAR E
ENCODING 69
SWIDTH 602 0
DWIDTH 14 0
BBX 10 17 3 0
BITMAP
ff80
c000
c000
c000
c000
c000
c000
ff00
c000
c000
c000
c000
c000
c000
c000
c000
ffc0
ENDCHAR
STARTCHAR F
ENCODING 70
SWIDTH 602 0
DWIDTH 14 0
BBX 10 17 3 0
BITMAP
ffc0
c000
c000
c000
c000
c000
c000
c000
ff80
c000
c000
c000
c000
c000
c000
c000
c000
ENDCHAR
STARTCHAR G
ENCODING 71
SWIDTH 602 0
DWIDTH 14 0
BBX 12 17 1 0
BITMAP
07f0
1810
3000
6000
6000
c000
c000
c000
c000
c000
c030
c030
6030
6030
3030
1c30
07e0
ENDCHAR
STARTCHAR H
ENCODING 72
SWIDTH 602 0
DWIDTH 14 0
BBX 11 17 2 0
BITMAP
c060
c060
c060
c060
c060
c060
c060
c060
ffe0
c060
c060
c060
c060
c060
c060
c060
c060
ENDCHAR
STARTCHAR I
ENCODING 73
SWIDTH 602 0
DWIDTH 14 0
BBX 10 17 2 0
BITMAP
ffc0
0c00
0c00
0c00
0c00
0c00
0c00
0c00
0c00
0c00
0c00
0c00
0c00
0c00
0c00
0c00
ffc0
ENDCHAR
STARTCHAR J
ENCODING 74
SWIDTH 602 0
DWIDTH 14 0
BBX 8 17 3 0
BITMAP
7f
03
03
03
03
03
03
03
03
03
03
03
03
03
03
86
fc
ENDCHAR
STARTCHAR K
ENCODING 75
SWIDTH 602 0
DWIDTH 14 0
BBX 12 17 2 0
BITMAP
c040
c080
c100
c300
c200
c400
c800
d000
f800
dc00
cc00
c600
c300
c380
c1c0
c0e0
c070
ENDCHAR
STARTCHAR L
ENCODING 76
SWIDTH 602 0
DWIDTH 14 0
BBX 10 17 3 0
BITMAP
c000
c000
c000
c000
c000
c000
c000
c000
c000
c000
c000
c000
c000
c000
c000
c000
ffc0
ENDCHAR
STARTCHAR M
ENCODING 77
SWIDTH 602 0
DWIDTH 14 0
BBX 12 17 1 0
BITMAP
c030
e070
e070
a050
a050
b0d0
9090
9090
9090
8910
8910
8910
8910
8610
8610
8610
8010
ENDCHAR
STARTCHAR N
ENCODING 78
SWIDTH 602 0
DWIDTH 14 0
BBX 11 17 2 0
BITMAP
c020
e020
e020
f020
b020
9820
9820
8c20
8e20
8620
8320
8320
81a0
81e0
80e0
8060
8060
ENDCHAR
STARTCHAR O
ENCODING 79
SWIDTH 602 0
DWIDTH 14 0
BBX 13 17 1 0
BITMAP
0f80
38e0
3060
6030
6030
c018
c018
c018
c018
c018
c018
c018
6030
6030
3060
38e0
0f80
ENDCHAR
STARTCHAR P
ENCODING 80
SWIDTH 602 0
DWIDTH 14 0
BBX 11 17 3 0
BITMAP
ff80
c0c0
c060
c060
c060
c060
c060
c0c0
c180
fe00
c000
c000
c000
c000
c000
c000
c000
ENDCHAR
STARTCHAR Q
ENCODING 81
SWIDTH 602 0
DWIDTH 14 0
BBX 14 21 1 -4
BITMAP
0f80
38c0
3060
6030
6030
c018
c018
c018
c018
c018
c018
c018
6038
6030
3070
38e0
0fe0
00c0
0070
003c
0018
ENDCHAR
STARTCHAR R
ENCODING 82
SWIDTH 602 0
DWIDTH 14 0
BBX 12 17 2 0
BITMAP
ff00
c180
c0c0
c0c0
c0c0
c0c0
c1c0
c380
ff00
c600
c700
c300
c180
c1c0
c0c0
c0e0
c070
ENDCHAR
STARTCHAR S
ENCODING 83
SWIDTH 602 0
DWIDTH 14 0
BBX 11 17 2 0
BITMAP
1fc0
6040
c000
c000
c000
e000
7000
3c00
0f00
03c0
00e0
0060
0060
0060
0040
80c0
7f00
ENDCHAR
STARTCHAR T
ENCODING 84
SWIDTH 602 0
DWIDTH 14 0
BBX 14 17 0 0
BITMAP
fffc
0300
0300
0300
0300
0300
0300
0300
0300
0300
0300
0300
0300
0300
0300
0300
0300
ENDCHAR
STARTCHAR U
ENCODING 85
SWIDTH 602 0
DWIDTH 14 0
BBX 11 17 2 0
BITMAP
c020
c020
c020
c020
c020
c020
c020
c020
c020
c020
c020
c020
c020
c020
4040
60c0
3f80
ENDCHAR
STARTCHAR V
ENCODING 86
SWIDTH 602 0
DWIDTH 14 0
BBX 14 17 0 0
BITMAP
c00c
6008
6008
6010
3010
3010
3020
1820
1820
1840
0c40
0cc0
0e80
0680
0700
0700
0300
ENDCHAR
STARTCHAR W
ENCODING 87
SWIDTH 602 0
DWIDTH 14 0
BBX 14 17 0 0
BITMAP
8004
8604
860c
8708
cf08
cf08
cd08
c918
c998
5990
5890
5090
70f0
70f0
70e0
6060
6060
ENDCHAR
STARTCHAR X
ENCODING 88
SWIDTH 602 0
DWIDTH 14 0
BBX 13 17 -1 0
BITMAP
c010
6020
7060
3040
3880
1d80
0d00
0e00
0600
0700
0b80
1180
10c0
20e0
4060
4030
8038
ENDCHAR
STARTCHAR Y
ENCODING 89
SWIDTH 602 0
DWIDTH 14 0
BBX 13 17 0 0
BITMAP
e008
6018
3010
3820
1820
1c40
0cc0
0680
0700
0300
0300
0300
0300
0300
0300
0300
0300
ENDCHAR
STARTCHAR Z
ENCODING 90
SWIDTH 602 0
DWIDTH 14 0
BBX 12 17 1 0
BITMAP
7ff0
0070
0060
00c0
01c0
0180
0300
0700
0600
0e00
1c00
1800
3800
7000
6000
e000
fff0
ENDCHAR
STARTCHAR bracketleft
ENCODING 91
SWIDTH 602 0
DWIDTH 14 0
BBX 6 21 6 -4
BITMAP
fc
80
80
80
80
80
80
80
80
80
80
80
80
80
80
80
80
80
80
80
fc
ENDCHAR
STARTCHAR backslash
ENCODING 92
SWIDTH 602 0
DWIDTH 14 0
BBX 13 21 1 -4
BITMAP
c000
4000
2000
2000
1000
1000
0800
0c00
0400
0600
0200
0300
0100
0180
0080
0040
0040
0020
0020
0010
0018
ENDCHAR
STARTCHAR bracketright
ENCODING 93
SWIDTH 602 0
DWIDTH 14 0
BBX 6 21 3 -4
BITMAP
fc
04
04
04
04
04
04
04
04
04
04
04
04
04
04
04
04
04
04
04
fc
ENDCHAR
STARTCHAR asciicircum
ENCODING 94
SWIDTH 602 0
DWIDTH 14 0
BBX 12 13 1 3
BITMAP
0200
0600
0600
0f00
0900
0900
1080
1080
2040
2040
6040
4020
c030
ENDCHAR
STARTCHAR underscore
ENCODING 95
SWIDTH 602 0
DWIDTH 14 0
BBX 14 1 0 -2
BITMAP
fffc
ENDCHAR
STARTCHAR quoteleft
ENCODING 96
SWIDTH 602 0
DWIDTH 14 0
BBX 3 6 6 11
BITMAP
60
c0
80
e0
e0
e0
ENDCHAR
STARTCHAR a
ENCODING 97
SWIDTH 602 0
DWIDTH 14 0
BBX 12 13 2 0
BITMAP
3f80
41c0
00c0
00c0
00c0
1fc0
70c0
60c0
c0c0
c0c0
c0c0
63c0
3ef0
ENDCHAR
STARTCHAR b
ENCODING 98
SWIDTH 602 0
DWIDTH 14 0
BBX 11 17 2 0
BITMAP
c000
c000
c000
c000
cf00
f1c0
e0c0
c060
c060
c060
c060
c060
c060
c0c0
c0c0
f180
df00
ENDCHAR
STARTCHAR c
ENCODING 99
SWIDTH 602 0
DWIDTH 14 0
BBX 11 13 2 0
BITMAP
0fe0
3860
6000
6000
c000
c000
c000
c000
c000
6000
6000
3820
0fe0
ENDCHAR
STARTCHAR d
ENCODING 100
SWIDTH 602 0
DWIDTH 14 0
BBX 11 17 2 0
BITMAP
0060
0060
0060
0060
1f60
31e0
6060
6060
c060
c060
c060
c060
c060
c060
60e0
71e0
1e60
ENDCHAR
STARTCHAR e
ENCODING 101
SWIDTH 602 0
DWIDTH 14 0
BBX 11 13 2 0
BITMAP
1f80
31c0
60c0
6060
c060
c060
ffe0
c000
c000
4000
6000
3020
0fe0
ENDCHAR
STARTCHAR f
ENCODING 102
SWIDTH 602 0
DWIDTH 14 0
BBX 12 19 2 0
BITMAP
07f0
0c10
1800
1800
1800
1800
fff0
1800
1800
1800
1800
1800
1800
1800
1800
1800
1800
1800
1800
ENDCHAR
STARTCHAR g
ENCODING 103
SWIDTH 602 0
DWIDTH 14 0
BBX 11 18 2 -5
BITMAP
1fa0
31e0
60e0
4060
c060
c060
c060
c060
c060
c060
60e0
71e0
1e60
0060
0060
0040
4080
7f00
ENDCHAR
STARTCHAR h
ENCODING 104
SWIDTH 602 0
DWIDTH 14 0
BBX 10 17 2 0
BITMAP
c000
c000
c000
c000
cf00
df80
f1c0
e0c0
c0c0
c0c0
c0c0
c0c0
c0c0
c0c0
c0c0
c0c0
c0c0
ENDCHAR
STARTCHAR i
ENCODING 105
SWIDTH 602 0
DWIDTH 14 0
BBX 7 17 2 0
BITMAP
06
06
00
00
fe
06
06
06
06
06
06
06
06
06
06
06
06
ENDCHAR
STARTCHAR j
ENCODING 106
SWIDTH 602 0
DWIDTH 14 0
BBX 8 22 2 -5
BITMAP
03
03
00
00
7f
03
03
03
03
03
03
03
03
03
03
03
03
03
03
03
86
fc
ENDCHAR
STARTCHAR k
ENCODING 107
SWIDTH 602 0
DWIDTH 14 0
BBX 11 17 3 0
BITMAP
c000
c000
c000
c000
c180
c100
c200
c400
c800
d000
f800
dc00
ce00
c700
c380
c180
c0e0
ENDCHAR
STARTCHAR l
ENCODING 108
SWIDTH 602 0
DWIDTH 14 0
BBX 7 17 2 0
BITMAP
fe
06
06
06
06
06
06
06
06
06
06
06
06
06
06
06
06
ENDCHAR
STARTCHAR m
ENCODING 109
SWIDTH 602 0
DWIDTH 14 0
BBX 13 13 1 0
BITMAP
9c70
a288
c308
8208
8208
8208
8208
8208
8208
8208
8208
8208
8208
ENDCHAR
STARTCHAR n
ENCODING 110
SWIDTH 602 0
DWIDTH 14 0
BBX 10 13 2 0
BITMAP
cf00
df80
f1c0
e0c0
c0c0
c0c0
c0c0
c0c0
c0c0
c0c0
c0c0
c0c0
c0c0
ENDCHAR
STARTCHAR o
ENCODING 111
SWIDTH 602 0
DWIDTH 14 0
BBX 12 13 1 0
BITMAP
1f80
30c0
6060
6060
c030
c030
c030
c030
c030
6060
6060
30c0
1f80
ENDCHAR
STARTCHAR p
ENCODING 112
SWIDTH 602 0
DWIDTH 14 0
BBX 11 18 2 -5
BITMAP
cf00
f1c0
e0c0
c060
c060
c060
c060
c060
c060
c0c0
c0c0
f180
df00
c000
c000
c000
c000
c000
ENDCHAR
STARTCHAR q
ENCODING 113
SWIDTH 602 0
DWIDTH 14 0
BBX 11 18 1 -5
BITMAP
1f60
31e0
6060
6060
c060
c060
c060
c060
c060
c060
60e0
71e0
1e60
0060
0060
0060
0060
0060
ENDCHAR
STARTCHAR r
ENCODING 114
SWIDTH 602 0
DWIDTH 14 0
BBX 9 13 4 0
BITMAP
cf80
f880
e080
c000
c000
c000
c000
c000
c000
c000
c000
c000
c000
ENDCHAR
STARTCHAR s
ENCODING 115
SWIDTH 602 0
DWIDTH 14 0
BBX 10 13 2 0
BITMAP
3f80
6080
c000
c000
e000
7c00
3f00
07c0
00c0
00c0
00c0
c180
fe00
ENDCHAR
STARTCHAR t
ENCODING 116
SWIDTH 602 0
DWIDTH 14 0
BBX 11 15 2 0
BITMAP
1800
1800
ffe0
1800
1800
1800
1800
1800
1800
1800
1800
1800
1800
0c00
07e0
ENDCHAR
STARTCHAR u
ENCODING 117
SWIDTH 602 0
DWIDTH 14 0
BBX 10 13 2 0
BITMAP
c0c0
c0c0
c0c0
c0c0
c0c0
c0c0
c0c0
c0c0
c0c0
c1c0
c3c0
7ec0
3cc0
ENDCHAR
STARTCHAR v
ENCODING 118
SWIDTH 602 0
DWIDTH 14 0
BBX 13 13 1 0
BITMAP
c018
6010
6020
3020
3020
3840
1840
1880
0c80
0d80
0f00
0700
0600
ENDCHAR
STARTCHAR w
ENCODING 119
SWIDTH 602 0
DWIDTH 14 0
BBX 14 13 0 0
BITMAP
c004
c304
c308
6308
6488
6488
6498
6490
6890
3850
3870
3870
3060
ENDCHAR
STARTCHAR x
ENCODING 120
SWIDTH 602 0
DWIDTH 14 0
BBX 12 13 1 0
BITMAP
e060
7040
3080
1880
1d00
0e00
0600
0f00
0b80
1180
30c0
20e0
4070
ENDCHAR
STARTCHAR y
ENCODING 121
SWIDTH 602 0
DWIDTH 14 0
BBX 13 18 1 -5
BITMAP
e018
6010
6030
3020
3020
3840
1840
1880
0c80
0d80
0f00
0700
0600
0200
0400
0400
0800
7000
ENDCHAR
STARTCHAR z
ENCODING 122
SWIDTH 602 0
DWIDTH 14 0
BBX 11 13 2 0
BITMAP
ffe0
0040
0080
0100
0300
0200
0400
0800
1000
3000
6000
4000
ffe0
ENDCHAR
STARTCHAR braceleft
ENCODING 123
SWIDTH 602 0
DWIDTH 14 0
BBX 9 21 3 -4
BITMAP
0780
0c00
1800
1800
1800
0c00
0c00
0400
0400
0800
f000
0800
0400
0400
0c00
0c00
1800
1800
1800
0c00
0780
ENDCHAR
STARTCHAR bar
ENCODING 124
SWIDTH 602 0
DWIDTH 14 0
BBX 1 21 7 -4
BITMAP
80
80
80
80
80
80
80
80
80
80
80
80
80
80
80
80
80
80
80
80
80
ENDCHAR
STARTCHAR braceright
ENCODING 125
SWIDTH 602 0
DWIDTH 14 0
BBX 9 21 3 -4
BITMAP
f800
0c00
0600
0600
0600
0c00
0c00
0800
0800
0c00
0780
0c00
0800
0800
0800
0c00
0600
0600
0600
0c00
f800
ENDCHAR
STARTCHAR asciitilde
ENCODING 126
SWIDTH 602 0
DWIDTH 14 0
BBX 12 5 1 4
BITMAP
3810
4c10
8610
8320
81c0
ENDCHAR
STARTCHAR exclamdown
ENCODING 161
SWIDTH 602 0
DWIDTH 14 0
BBX 3 18 6 -5
BITMAP
e0
e0
00
00
00
40
40
40
40
40
60
60
60
60
60
60
60
60
ENDCHAR
STARTCHAR cent
ENCODING 162
SWIDTH 602 0
DWIDTH 14 0
BBX 10 17 2 0
BITMAP
0200
0200
0fc0
3e40
7200
6200
c200
c200
c200
c200
c200
4200
6240
3a40
0fc0
0200
0200
ENDCHAR
STARTCHAR sterling
ENCODING 163
SWIDTH 602 0
DWIDTH 14 0
BBX 9 17 3 0
BITMAP
0f80
1880
1000
3000
3000
3000
3000
3000
fc00
3000
3000
3000
3000
3000
6000
e000
ff80
ENDCHAR
STARTCHAR currency
ENCODING 164
SWIDTH 602 0
DWIDTH 14 0
BBX 11 12 2 3
BITMAP
c020
4060
7fc0
71c0
60c0
4040
4040
4040
60c0
71c0
ffe0
8000
ENDCHAR
STARTCHAR yen
ENCODING 165
SWIDTH 602 0
DWIDTH 14 0
BBX 13 17 1 0
BITMAP
e018
6010
7020
3060
3840
1880
1c80
0d00
0f00
0600
3fe0
0600
3fe0
0600
0600
0600
0600
ENDCHAR
STARTCHAR brokenbar
ENCODING 166
SWIDTH 602 0
DWIDTH 14 0
BBX 1 21 7 -4
BITMAP
80
80
80
80
80
80
80
80
00
00
00
00
00
80
80
80
80
80
80
80
80
ENDCHAR
STARTCHAR section
ENCODING 167
SWIDTH 602 0
DWIDTH 14 0
BBX 9 21 3 -4
BITMAP
3f00
4100
8000
8000
c000
f000
f800
de00
8700
8300
8100
c100
7100
3e00
1f00
0780
0180
0180
0180
8300
fe00
ENDCHAR
STARTCHAR dieresis
ENCODING 168
SWIDTH 602 0
DWIDTH 14 0
BBX 7 1 4 16
BITMAP
c6
ENDCHAR
STARTCHAR copyright
ENCODING 169
SWIDTH 602 0
DWIDTH 14 0
BBX 13 17 1 0
BITMAP
0fc0
3060
4010
4010
87c8
9848
b008
a008
a008
a008
b008
9848
8fc8
4010
4010
3060
1f80
ENDCHAR
STARTCHAR ordfeminine
ENCODING 170
SWIDTH 602 0
DWIDTH 14 0
BBX 8 9 3 8
BITMAP
7c
c6
82
02
3e
42
82
86
7f
ENDCHAR
STARTCHAR guillemotleft
ENCODING 171
SWIDTH 602 0
DWIDTH 14 0
BBX 11 11 2 1
BITMAP
0420
0840
1080
3180
6300
c600
6300
3180
1080
0840
0c60
ENDCHAR
STARTCHAR logicalnot
ENCODING 172
SWIDTH 602 0
DWIDTH 14 0
BBX 12 7 1 3
BITMAP
fff0
0010
0010
0010
0010
0010
0010
ENDCHAR
STARTCHAR hyphen
ENCODING 173
SWIDTH 602 0
DWIDTH 14 0
BBX 10 1 2 8
BITMAP
ffc0
ENDCHAR
STARTCHAR registered
ENCODING 174
SWIDTH 602 0
DWIDTH 14 0
BBX 10 10 2 7
BITMAP
1e00
6180
5e80
9240
9e40
9c40
9440
5280
6180
1e00
ENDCHAR
STARTCHAR macron
ENCODING 175
SWIDTH 602 0
DWIDTH 14 0
BBX 7 1 4 16
BITMAP
fe
ENDCHAR
STARTCHAR degree
ENCODING 176
SWIDTH 602 0
DWIDTH 14 0
BBX 4 3 5 14
BITMAP
60
90
60
ENDCHAR
STARTCHAR plusminus
ENCODING 177
SWIDTH 602 0
DWIDTH 14 0
BBX 11 13 2 0
BITMAP
0400
0400
0400
0400
ffe0
0400
0400
0400
0400
0400
0000
0000
ffe0
ENDCHAR
STARTCHAR twosuperior
ENCODING 178
SWIDTH 602 0
DWIDTH 14 0
BBX 5 9 -2 8
BITMAP
f0
88
08
08
10
20
40
c0
f8
ENDCHAR
STARTCHAR threesuperior
ENCODING 179
SWIDTH 602 0
DWIDTH 14 0
BBX 5 9 -2 8
BITMAP
f0
08
08
08
70
18
08
08
f0
ENDCHAR
STARTCHAR acute
ENCODING 180
SWIDTH 602 0
DWIDTH 14 0
BBX 5 3 4 14
BITMAP
38
60
c0
ENDCHAR
STARTCHAR mu
ENCODING 181
SWIDTH 602 0
DWIDTH 14 0
BBX 10 17 2 -4
BITMAP
c0c0
c0c0
c0c0
c0c0
c0c0
c0c0
c0c0
c0c0
c0c0
c1c0
c3c0
fec0
fcc0
c000
c000
c000
c000
ENDCHAR
STARTCHAR paragraph
ENCODING 182
SWIDTH 602 0
DWIDTH 14 0
BBX 8 21 3 -4
BITMAP
7f
f9
f9
f9
f9
f9
79
79
19
09
09
09
09
09
09
09
09
09
09
09
09
ENDCHAR
STARTCHAR periodcentered
ENCODING 183
SWIDTH 602 0
DWIDTH 14 0
BBX 3 2 6 6
BITMAP
e0
e0
ENDCHAR
STARTCHAR cedilla
ENCODING 184
SWIDTH 602 0
DWIDTH 14 0
BBX 4 5 6 -5
BITMAP
e0
60
10
10
e0
ENDCHAR
STARTCHAR onesuperior
ENCODING 185
SWIDTH 602 0
DWIDTH 14 0
BBX 5 9 -2 8
BITMAP
60
e0
20
20
20
20
20
20
f8
ENDCHAR
STARTCHAR ordmasculine
ENCODING 186
SWIDTH 602 0
DWIDTH 14 0
BBX 9 9 3 8
BITMAP
3e00
6300
c180
c180
c180
c180
c180
6300
3e00
ENDCHAR
STARTCHAR guillemotright
ENCODING 187
SWIDTH 602 0
DWIDTH 14 0
BBX 11 11 2 1
BITMAP
c600
4200
2100
3180
18c0
0c60
18c0
3180
2100
4200
8400
ENDCHAR
STARTCHAR onequarter
ENCODING 188
SWIDTH 602 0
DWIDTH 14 0
BBX 14 17 2 0
BITMAP
600c
e018
2010
2020
2040
20c0
2080
2100
fb18
0218
0428
0828
0848
1088
20fc
6008
c008
ENDCHAR
STARTCHAR onehalf
ENCODING 189
SWIDTH 602 0
DWIDTH 14 0
BBX 14 17 2 0
BITMAP
600c
e018
2010
2020
2040
20c0
2080
2100
fb78
0244
0404
0804
0808
1010
2020
6060
c07c
ENDCHAR
STARTCHAR threequarters
ENCODING 190
SWIDTH 602 0
DWIDTH 14 0
BBX 14 17 2 0
BITMAP
f00c
0818
0810
0820
7040
18c0
0880
0900
f318
0218
0428
0828
0848
1088
20fc
6008
c008
ENDCHAR
STARTCHAR questiondown
ENCODING 191
SWIDTH 602 0
DWIDTH 14 0
BBX 10 18 2 -5
BITMAP
0c00
0c00
0000
0000
0000
0600
0600
0600
0400
0800
1000
6000
4000
c000
c000
c040
6040
3fc0
ENDCHAR
STARTCHAR Agrave
ENCODING 192
SWIDTH 602 0
DWIDTH 14 0
BBX 13 21 -1 0
BITMAP
0e00
0300
0180
0000
0600
0700
0b00
0b00
0980
1180
1180
10c0
30c0
20c0
20e0
7fe0
4060
4030
8030
8030
8018
ENDCHAR
STARTCHAR Aacute
ENCODING 193
SWIDTH 602 0
DWIDTH 14 0
BBX 13 21 -1 0
BITMAP
0700
0c00
1800
0000
0600
0700
0b00
0b00
0980
1180
1180
10c0
30c0
20c0
20e0
7fe0
4060
4030
8030
8030
8018
ENDCHAR
STARTCHAR Acircumflex
ENCODING 194
SWIDTH 602 0
DWIDTH 14 0
BBX 13 21 -1 0
BITMAP
0f00
1f80
39c0
0000
0600
0700
0b00
0b00
0980
1180
1180
10c0
30c0
20c0
20e0
7fe0
4060
4030
8030
8030
8018
ENDCHAR
STARTCHAR Atilde
ENCODING 195
SWIDTH 602 0
DWIDTH 14 0
BBX 13 20 -1 0
BITMAP
1ec0
3780
0000
0600
0700
0b00
0b00
0980
1180
1180
10c0
30c0
20c0
20e0
7fe0
4060
4030
8030
8030
8018
ENDCHAR
STARTCHAR Adieresis
ENCODING 196
SWIDTH 602 0
DWIDTH 14 0
BBX 13 19 -1 0
BITMAP
3180
0000
0600
0700
0b00
0b00
0980
1180
1180
10c0
30c0
20c0
20e0
7fe0
4060
4030
8030
8030
8018
ENDCHAR
STARTCHAR Aring
ENCODING 197
SWIDTH 602 0
DWIDTH 14 0
BBX 13 22 -1 0
BITMAP
0600
0900
0900
0600
0000
0600
0700
0b00
0b00
0980
1180
1180
10c0
30c0
20c0
20e0
7fe0
4060
4030
8030
8030
8018
ENDCHAR
STARTCHAR AE
ENCODING 198
SWIDTH 602 0
DWIDTH 14 0
BBX 12 17 -1 0
BITMAP
07e0
0700
0700
0b00
0b00
0b00
1300
1300
13e0
2300
2300
6300
7f00
4300
8300
8300
83f0
ENDCHAR
STARTCHAR Ccedilla
ENCODING 199
SWIDTH 602 0
DWIDTH 14 0
BBX 12 22 1 -5
BITMAP
07f0
1830
3000
6000
6000
c000
c000
c000
c000
c000
c000
c000
6000
6000
3000
1c10
07f0
0c00
0600
0100
0100
0e00
ENDCHAR
STARTCHAR Egrave
ENCODING 200
SWIDTH 602 0
DWIDTH 14 0
BBX 10 21 3 0
BITMAP
3800
0c00
0600
0000
ff80
c000
c000
c000
c000
c000
c000
ff00
c000
c000
c000
c000
c000
c000
c000
c000
ffc0
ENDCHAR
STARTCHAR Eacute
ENCODING 201
SWIDTH 602 0
DWIDTH 14 0
BBX 10 21 3 0
BITMAP
0e00
1800
3000
0000
ff80
c000
c000
c000
c000
c000
c000
ff00
c000
c000
c000
c000
c000
c000
c000
c000
ffc0
ENDCHAR
STARTCHAR Ecircumflex
ENCODING 202
SWIDTH 602 0
DWIDTH 14 0
BBX 10 21 3 0
BITMAP
1e00
3f00
7380
0000
ff80
c000
c000
c000
c000
c000
c000
ff00
c000
c000
c000
c000
c000
c000
c000
c000
ffc0
ENDCHAR
STARTCHAR Edieresis
ENCODING 203
SWIDTH 602 0
DWIDTH 14 0
BBX 10 19 3 0
BITMAP
6300
0000
ff80
c000
c000
c000
c000
c000
c000
ff00
c000
c000
c000
c000
c000
c000
c000
c000
ffc0
ENDCHAR
STARTCHAR Igrave
ENCODING 204
SWIDTH 602 0
DWIDTH 14 0
BBX 10 21 2 0
BITMAP
1c00
0600
0300
0000
ffc0
0c00
0c00
0c00
0c00
0c00
0c00
0c00
0c00
0c00
0c00
0c00
0c00
0c00
0c00
0c00
ffc0
ENDCHAR
STARTCHAR Iacute
ENCODING 205
SWIDTH 602 0
DWIDTH 14 0
BBX 10 21 2 0
BITMAP
0e00
1800
3000
0000
ffc0
0c00
0c00
0c00
0c00
0c00
0c00
0c00
0c00
0c00
0c00
0c00
0c00
0c00
0c00
0c00
ffc0
ENDCHAR
STARTCHAR Icircumflex
ENCODING 206
SWIDTH 602 0
DWIDTH 14 0
BBX 10 21 2 0
BITMAP
1e00
3f00
7380
0000
ffc0
0c00
0c00
0c00
0c00
0c00
0c00
0c00
0c00
0c00
0c00
0c00
0c00
0c00
0c00
0c00
ffc0
ENDCHAR
STARTCHAR Idieresis
ENCODING 207
SWIDTH 602 0
DWIDTH 14 0
BBX 10 19 2 0
BITMAP
6300
0000
ffc0
0c00
0c00
0c00
0c00
0c00
0c00
0c00
0c00
0c00
0c00
0c00
0c00
0c00
0c00
0c00
ffc0
ENDCHAR
STARTCHAR Eth
ENCODING 208
SWIDTH 602 0
DWIDTH 14 0
BBX 13 17 0 0
BITMAP
7f80
60e0
6070
6030
6018
6018
6018
fc18
6018
6018
6018
6018
6030
6030
6060
60e0
7f80
ENDCHAR
STARTCHAR Ntilde
ENCODING 209
SWIDTH 602 0
DWIDTH 14 0
BBX 11 20 2 0
BITMAP
1ec0
3780
0000
c020
e020
e020
f020
b020
9820
9820
8c20
8e20
8620
8320
8320
81a0
81e0
80e0
8060
8060
ENDCHAR
STARTCHAR Ograve
ENCODING 210
SWIDTH 602 0
DWIDTH 14 0
BBX 13 21 1 0
BITMAP
0e00
0300
0180
0000
0f80
38e0
3060
6030
6030
c018
c018
c018
c018
c018
c018
c018
6030
6030
3060
38e0
0f80
ENDCHAR
STARTCHAR Oacute
ENCODING 211
SWIDTH 602 0
DWIDTH 14 0
BBX 13 21 1 0
BITMAP
0380
0600
0c00
0000
0f80
38e0
3060
6030
6030
c018
c018
c018
c018
c018
c018
c018
6030
6030
3060
38e0
0f80
ENDCHAR
STARTCHAR Ocircumflex
ENCODING 212
SWIDTH 602 0
DWIDTH 14 0
BBX 13 21 1 0
BITMAP
0780
0fc0
1ce0
0000
0f80
38e0
3060
6030
6030
c018
c018
c018
c018
c018
c018
c018
6030
6030
3060
38e0
0f80
ENDCHAR
STARTCHAR Otilde
ENCODING 213
SWIDTH 602 0
DWIDTH 14 0
BBX 13 20 1 0
BITMAP
0f60
1bc0
0000
0f80
38e0
3060
6030
6030
c018
c018
c018
c018
c018
c018
c018
6030
6030
3060
38e0
0f80
ENDCHAR
STARTCHAR Odieresis
ENCODING 214
SWIDTH 602 0
DWIDTH 14 0
BBX 13 19 1 0
BITMAP
18c0
0000
0f80
38e0
3060
6030
6030
c018
c018
c018
c018
c018
c018
c018
6030
6030
3060
38e0
0f80
ENDCHAR
STARTCHAR multiply
ENCODING 215
SWIDTH 602 0
DWIDTH 14 0
BBX 12 13 1 0
BITMAP
0600
0600
0000
0000
0000
0000
fff0
0000
0000
0000
0000
0600
0600
ENDCHAR
STARTCHAR Oslash
ENCODING 216
SWIDTH 602 0
DWIDTH 14 0
BBX 13 17 1 0
BITMAP
0ff8
3870
3030
6070
6078
c098
c118
c118
c218
c418
c418
c818
d030
7030
6060
78e0
ff80
ENDCHAR
STARTCHAR Ugrave
ENCODING 217
SWIDTH 602 0
DWIDTH 14 0
BBX 11 21 2 0
BITMAP
1c00
0600
0300
0000
c020
c020
c020
c020
c020
c020
c020
c020
c020
c020
c020
c020
c020
c020
4040
60c0
3f80
ENDCHAR
STARTCHAR Uacute
ENCODING 218
SWIDTH 602 0
DWIDTH 14 0
BBX 11 21 2 0
BITMAP
0700
0c00
1800
0000
c020
c020
c020
c020
c020
c020
c020
c020
c020
c020
c020
c020
c020
c020
4040
60c0
3f80
ENDCHAR
STARTCHAR Ucircumflex
ENCODING 219
SWIDTH 602 0
DWIDTH 14 0
BBX 11 21 2 0
BITMAP
1e00
3f00
7380
0000
c020
c020
c020
c020
c020
c020
c020
c020
c020
c020
c020
c020
c020
c020
4040
60c0
3f80
ENDCHAR
STARTCHAR Udieresis
ENCODING 220
SWIDTH 602 0
DWIDTH 14 0
BBX 11 19 2 0
BITMAP
3180
0000
c020
c020
c020
c020
c020
c020
c020
c020
c020
c020
c020
c020
c020
c020
4040
60c0
3f80
ENDCHAR
STARTCHAR Yacute
ENCODING 221
SWIDTH 602 0
DWIDTH 14 0
BBX 13 21 0 0
BITMAP
0380
0600
0c00
0000
e008
6018
3010
3820
1820
1c40
0cc0
0680
0700
0300
0300
0300
0300
0300
0300
0300
0300
ENDCHAR
STARTCHAR Thorn
ENCODING 222
SWIDTH 602 0
DWIDTH 14 0
BBX 11 17 3 0
BITMAP
c000
c000
c000
ff80
c0c0
c060
c060
c060
c060
c060
c0c0
c180
fe00
c000
c000
c000
c000
ENDCHAR
STARTCHAR germandbls
ENCODING 223
SWIDTH 602 0
DWIDTH 14 0
BBX 11 19 2 0
BITMAP
3c00
4700
c300
c300
c300
c600
c400
c800
c800
cc00
c600
c300
c1c0
c0e0
c060
c060
c060
c8c0
cf80
ENDCHAR
STARTCHAR agrave
ENCODING 224
SWIDTH 602 0
DWIDTH 14 0
BBX 12 17 2 0
BITMAP
1c00
0600
0300
0000
3f80
41c0
00c0
00c0
00c0
1fc0
70c0
60c0
c0c0
c0c0
c0c0
63c0
3ef0
ENDCHAR
STARTCHAR aacute
ENCODING 225
SWIDTH 602 0
DWIDTH 14 0
BBX 12 17 2 0
BITMAP
0700
0c00
1800
0000
3f80
41c0
00c0
00c0
00c0
1fc0
70c0
60c0
c0c0
c0c0
c0c0
63c0
3ef0
ENDCHAR
STARTCHAR acircumflex
ENCODING 226
SWIDTH 602 0
DWIDTH 14 0
BBX 12 17 2 0
BITMAP
0f00
1f80
39c0
0000
3f80
41c0
00c0
00c0
00c0
1fc0
70c0
60c0
c0c0
c0c0
c0c0
63c0
3ef0
ENDCHAR
STARTCHAR atilde
ENCODING 227
SWIDTH 602 0
DWIDTH 14 0
BBX 12 16 2 0
BITMAP
1ec0
3780
0000
3f80
41c0
00c0
00c0
00c0
1fc0
70c0
60c0
c0c0
c0c0
c0c0
63c0
3ef0
ENDCHAR
STARTCHAR adieresis
ENCODING 228
SWIDTH 602 0
DWIDTH 14 0
BBX 12 15 2 0
BITMAP
3180
0000
3f80
41c0
00c0
00c0
00c0
1fc0
70c0
60c0
c0c0
c0c0
c0c0
63c0
3ef0
ENDCHAR
STARTCHAR aring
ENCODING 229
SWIDTH 602 0
DWIDTH 14 0
BBX 12 18 2 0
BITMAP
0600
0900
0900
0600
0000
3f80
41c0
00c0
00c0
00c0
1fc0
70c0
60c0
c0c0
c0c0
c0c0
63c0
3ef0
ENDCHAR
STARTCHAR ae
ENCODING 230
SWIDTH 602 0
DWIDTH 14 0
BBX 14 13 0 0
BITMAP
7ef0
4398
030c
030c
030c
3ffc
6300
c300
c300
c300
c300
6784
3dfc
ENDCHAR
STARTCHAR ccedilla
ENCODING 231
SWIDTH 602 0
DWIDTH 14 0
BBX 11 18 2 -5
BITMAP
0fe0
3860
6000
6000
c000
c000
c000
c000
c000
6000
6000
3820
0fe0
0400
0600
0100
0100
0e00
ENDCHAR
STARTCHAR egrave
ENCODING 232
SWIDTH 602 0
DWIDTH 14 0
BBX 11 17 2 0
BITMAP
1c00
0600
0300
0000
1f80
31c0
60c0
6060
c060
c060
ffe0
c000
c000
4000
6000
3020
0fe0
ENDCHAR
STARTCHAR eacute
ENCODING 233
SWIDTH 602 0
DWIDTH 14 0
BBX 11 17 2 0
BITMAP
0700
0c00
1800
0000
1f80
31c0
60c0
6060
c060
c060
ffe0
c000
c000
4000
6000
3020
0fe0
ENDCHAR
STARTCHAR ecircumflex
ENCODING 234
SWIDTH 602 0
DWIDTH 14 0
BBX 11 17 2 0
BITMAP
1e00
3f00
7380
0000
1f80
31c0
60c0
6060
c060
c060
ffe0
c000
c000
4000
6000
3020
0fe0
ENDCHAR
STARTCHAR edieresis
ENCODING 235
SWIDTH 602 0
DWIDTH 14 0
BBX 11 15 2 0
BITMAP
3180
0000
1f80
31c0
60c0
6060
c060
c060
ffe0
c000
c000
4000
6000
3020
0fe0
ENDCHAR
STARTCHAR igrave
ENCODING 236
SWIDTH 602 0
DWIDTH 14 0
BBX 8 17 2 0
BITMAP
1c
06
03
00
fe
06
06
06
06
06
06
06
06
06
06
06
06
ENDCHAR
STARTCHAR iacute
ENCODING 237
SWIDTH 602 0
DWIDTH 14 0
BBX 7 17 2 0
BITMAP
0e
18
30
00
fe
06
06
06
06
06
06
06
06
06
06
06
06
ENDCHAR
STARTCHAR icircumflex
ENCODING 238
SWIDTH 602 0
DWIDTH 14 0
BBX 9 17 2 0
BITMAP
1e00
3f00
7380
0000
fe00
0600
0600
0600
0600
0600
0600
0600
0600
0600
0600
0600
0600
ENDCHAR
STARTCHAR idieresis
ENCODING 239
SWIDTH 602 0
DWIDTH 14 0
BBX 9 15 2 0
BITMAP
3180
0000
fe00
0600
0600
0600
0600
0600
0600
0600
0600
0600
0600
0600
0600
ENDCHAR
STARTCHAR eth
ENCODING 240
SWIDTH 602 0
DWIDTH 14 0
BBX 12 17 1 0
BITMAP
ff00
1f80
7300
0180
0fc0
30e0
6060
6070
c030
c030
c030
c030
c030
6060
6060
30c0
1f80
ENDCHAR
STARTCHAR ntilde
ENCODING 241
SWIDTH 602 0
DWIDTH 14 0
BBX 10 16 2 0
BITMAP
3d80
6f00
0000
cf00
df80
f1c0
e0c0
c0c0
c0c0
c0c0
c0c0
c0c0
c0c0
c0c0
c0c0
c0c0
ENDCHAR
STARTCHAR ograve
ENCODING 242
SWIDTH 602 0
DWIDTH 14 0
BBX 12 17 1 0
BITMAP
0e00
0300
0180
0000
1f80
30c0
6060
6060
c030
c030
c030
c030
c030
6060
6060
30c0
1f80
ENDCHAR
STARTCHAR oacute
ENCODING 243
SWIDTH 602 0
DWIDTH 14 0
BBX 12 17 1 0
BITMAP
0700
0c00
1800
0000
1f80
30c0
6060
6060
c030
c030
c030
c030
c030
6060
6060
30c0
1f80
ENDCHAR
STARTCHAR ocircumflex
ENCODING 244
SWIDTH 602 0
DWIDTH 14 0
BBX 12 17 1 0
BITMAP
0f00
1f80
39c0
0000
1f80
30c0
6060
6060
c030
c030
c030
c030
c030
6060
6060
30c0
1f80
ENDCHAR
STARTCHAR otilde
ENCODING 245
SWIDTH 602 0
DWIDTH 14 0
BBX 12 16 1 0
BITMAP
1ec0
3780
0000
1f80
30c0
6060
6060
c030
c030
c030
c030
c030
6060
6060
30c0
1f80
ENDCHAR
STARTCHAR odieresis
ENCODING 246
SWIDTH 602 0
DWIDTH 14 0
BBX 12 15 1 0
BITMAP
3180
0000
1f80
30c0
6060
6060
c030
c030
c030
c030
c030
6060
6060
30c0
1f80
ENDCHAR
STARTCHAR divide
ENCODING 247
SWIDTH 602 0
DWIDTH 14 0
BBX 12 13 1 0
BITMAP
c010
4030
2040
1080
1980
0f00
0600
0f00
1900
1080
2040
c020
8030
ENDCHAR
STARTCHAR oslash
ENCODING 248
SWIDTH 602 0
DWIDTH 14 0
BBX 12 13 1 0
BITMAP
1ff0
30e0
60e0
60f0
c130
c230
c630
c430
c830
f060
7060
70c0
ff80
ENDCHAR
STARTCHAR ugrave
ENCODING 249
SWIDTH 602 0
DWIDTH 14 0
BBX 10 17 2 0
BITMAP
1c00
0600
0300
0000
c0c0
c0c0
c0c0
c0c0
c0c0
c0c0
c0c0
c0c0
c0c0
c1c0
c3c0
7ec0
3cc0
ENDCHAR
STARTCHAR uacute
ENCODING 250
SWIDTH 602 0
DWIDTH 14 0
BBX 10 17 2 0
BITMAP
0e00
1800
3000
0000
c0c0
c0c0
c0c0
c0c0
c0c0
c0c0
c0c0
c0c0
c0c0
c1c0
c3c0
7ec0
3cc0
ENDCHAR
STARTCHAR ucircumflex
ENCODING 251
SWIDTH 602 0
DWIDTH 14 0
BBX 10 17 2 0
BITMAP
1e00
3f00
7380
0000
c0c0
c0c0
c0c0
c0c0
c0c0
c0c0
c0c0
c0c0
c0c0
c1c0
c3c0
7ec0
3cc0
ENDCHAR
STARTCHAR udieresis
ENCODING 252
SWIDTH 602 0
DWIDTH 14 0
BBX 10 15 2 0
BITMAP
3180
0000
c0c0
c0c0
c0c0
c0c0
c0c0
c0c0
c0c0
c0c0
c0c0
c1c0
c3c0
7ec0
3cc0
ENDCHAR
STARTCHAR yacute
ENCODING 253
SWIDTH 602 0
DWIDTH 14 0
BBX 13 22 1 -5
BITMAP
0380
0600
0c00
0000
e018
6010
6030
3020
3020
3840
1840
1880
0c80
0d80
0f00
0700
0600
0200
0400
0400
0800
7000
ENDCHAR
STARTCHAR thorn
ENCODING 254
SWIDTH 602 0
DWIDTH 14 0
BBX 11 21 2 -5
BITMAP
c000
c000
c000
cf00
f1c0
e0c0
c060
c060
c060
c060
c060
c060
c0c0
c0c0
f180
df00
c000
c000
c000
c000
c000
ENDCHAR
STARTCHAR ydieresis
ENCODING 255
SWIDTH 602 0
DWIDTH 14 0
BBX 13 20 1 -5
BITMAP
18c0
0000
e018
6010
6030
3020
3020
3840
1840
1880
0c80
0d80
0f00
0700
0600
0200
0400
0400
0800
7000
ENDCHAR
ENDFONT
